<?xml version="1.0" standalone="no"?>
<!DOCTYPE svg PUBLIC "-//W3C//DTD SVG 20010904//EN"
 "http://www.w3.org/TR/2001/REC-SVG-20010904/DTD/svg10.dtd">
<svg version="1.0" xmlns="http://www.w3.org/2000/svg"
 width="200px" height="100px" viewBox="0 0 2009.000000 792.000000"
 preserveAspectRatio="xMidYMid meet">

<g transform="translate(0.000000,792.000000) scale(0.100000,-0.100000)"
fill="#fff" stroke="none">
<path d="M14505 6040 c-440 -39 -765 -242 -937 -585 -93 -185 -134 -398 -125
-655 12 -332 105 -575 297 -770 91 -93 164 -147 275 -202 392 -197 991 -176
1342 48 205 130 350 315 427 546 102 302 94 677 -19 964 -64 160 -185 320
-324 426 -134 102 -355 189 -546 217 -105 15 -289 20 -390 11z m347 -528 c166
-59 285 -186 345 -366 25 -76 27 -93 28 -261 0 -203 -10 -259 -71 -383 -94
-193 -276 -301 -505 -302 -119 0 -181 13 -276 60 -139 69 -246 211 -290 385
-26 106 -23 353 5 458 59 217 198 364 394 417 97 27 284 22 370 -8z"/>
<path d="M1260 4870 l0 -1140 290 0 290 0 2 532 3 532 430 -528 c236 -291 434
-530 440 -532 5 -2 176 -3 378 -2 l369 3 -350 415 -349 415 81 26 c130 41 201
84 296 179 144 143 193 270 194 495 1 151 -13 215 -75 345 -33 70 -56 100
-128 171 -73 72 -104 95 -182 132 -190 92 -239 97 -1041 97 l-648 0 0 -1140z
m1319 615 c99 -55 149 -159 138 -287 -10 -122 -88 -221 -194 -247 -25 -7 -170
-11 -362 -11 l-321 0 0 291 0 290 343 -3 342 -3 54 -30z"/>
<path d="M4927 6003 c-4 -7 -950 -2225 -964 -2260 -4 -10 61 -13 304 -13 l310
0 63 155 62 155 523 0 523 0 37 -97 c21 -54 48 -123 59 -153 l22 -55 337 -3
c185 -1 337 -1 337 1 0 2 -218 514 -483 1138 l-484 1134 -321 3 c-176 1 -323
-1 -325 -5z m476 -1073 l153 -395 -324 -3 c-179 -1 -327 -1 -328 1 -2 2 71
189 163 416 126 311 169 409 175 395 5 -11 77 -197 161 -414z"/>
<path d="M7240 4870 l0 -1140 295 0 295 0 2 698 3 697 504 -697 504 -698 339
0 338 0 0 1140 0 1140 -295 0 -295 0 0 -711 c0 -390 -4 -708 -8 -705 -5 3
-239 322 -522 710 l-514 706 -323 0 -323 0 0 -1140z"/>
<path d="M10530 4871 l0 -1141 508 0 c644 0 798 14 1019 91 366 128 578 384
659 795 23 113 25 413 5 524 -76 419 -331 693 -751 804 -207 56 -251 59 -867
63 l-573 5 0 -1141z m1155 624 c164 -46 295 -154 363 -297 53 -111 66 -171 66
-308 -1 -256 -88 -453 -252 -564 -129 -88 -217 -106 -524 -106 l-218 0 0 651
0 651 253 -5 c195 -4 265 -9 312 -22z"/>
<path d="M16690 4870 l0 -1140 295 0 295 0 0 698 c1 664 1 696 18 676 10 -11
238 -325 507 -697 l488 -677 339 0 338 0 0 1140 0 1140 -295 0 -295 0 0 -712
-1 -713 -20 25 c-12 14 -247 334 -522 713 l-501 687 -323 0 -323 0 0 -1140z"/>
<path d="M13385 3208 c-26 -57 -50 -109 -52 -115 -4 -10 13 -13 65 -13 l70 0
59 63 c33 34 81 86 108 115 l48 52 -125 0 -125 0 -48 -102z"/>
<path d="M2882 3014 c-182 -49 -319 -194 -367 -389 -23 -94 -23 -277 0 -370
25 -101 77 -194 143 -258 76 -72 133 -103 233 -128 69 -18 102 -21 194 -16
166 8 268 50 369 152 104 106 150 239 150 435 0 201 -48 334 -160 444 -64 63
-148 110 -235 131 -80 19 -256 18 -327 -1z m284 -201 c32 -11 66 -34 101 -68
70 -71 93 -144 93 -300 0 -159 -22 -227 -98 -305 -47 -48 -68 -61 -116 -75
-147 -43 -295 18 -362 148 -30 57 -44 129 -44 227 0 111 19 196 58 260 29 47
103 104 156 119 52 15 159 12 212 -6z"/>
<path d="M5596 3014 c-134 -32 -264 -139 -325 -266 -82 -173 -82 -441 1 -615
60 -130 192 -233 339 -268 81 -19 226 -19 307 0 183 43 318 174 376 365 10 30
20 105 23 165 16 323 -128 550 -394 619 -76 20 -246 20 -327 0z m309 -211 c54
-29 110 -88 135 -145 32 -74 45 -194 32 -295 -19 -142 -68 -226 -164 -278 -48
-27 -62 -30 -143 -30 -82 0 -95 3 -145 31 -104 59 -156 158 -167 315 -15 218
64 370 217 420 48 16 192 4 235 -18z"/>
<path d="M1230 2441 l0 -571 120 0 120 0 0 235 0 235 70 0 c118 0 138 -18 320
-290 l120 -180 141 0 141 0 -23 38 c-168 274 -244 376 -323 434 -25 18 -34 29
-25 32 8 2 37 12 66 21 188 59 266 267 171 454 -25 50 -45 74 -81 98 -82 55
-94 56 -469 60 l-348 4 0 -570z m631 353 c47 -27 72 -77 64 -133 -13 -107 -48
-123 -277 -129 l-178 -4 0 147 0 147 178 -4 c155 -3 183 -7 213 -24z"/>
<path d="M3940 2441 l0 -571 269 0 c147 0 292 5 322 10 130 25 242 107 298
219 60 119 66 152 66 341 0 166 -2 179 -28 254 -52 146 -134 239 -254 288 -55
22 -72 23 -365 26 l-308 3 0 -570z m554 358 c52 -14 119 -83 141 -145 11 -33
19 -91 22 -179 8 -220 -29 -334 -127 -382 -39 -20 -68 -24 -198 -30 l-152 -6
0 383 0 383 138 -6 c75 -4 154 -12 176 -18z"/>
<path d="M6660 2441 l0 -571 115 0 115 0 0 214 0 214 188 4 c227 6 275 20 358
102 69 70 96 141 96 256 0 151 -61 259 -181 317 l-56 28 -317 3 -318 3 0 -570z
m548 352 c106 -52 112 -207 10 -268 -28 -17 -55 -21 -180 -23 l-148 -4 0 163
0 162 141 -6 c106 -4 149 -10 177 -24z"/>
<path d="M8081 2988 c-5 -13 -104 -267 -220 -565 -116 -298 -211 -544 -211
-547 0 -3 55 -6 123 -6 l122 0 46 128 45 127 229 0 228 0 48 -125 47 -125 126
-3 c69 -1 126 1 126 5 0 5 -101 260 -224 568 l-224 560 -126 3 c-123 3 -126 2
-135 -20z m208 -455 c39 -105 71 -196 71 -202 0 -7 -51 -11 -150 -11 -82 0
-150 1 -150 3 0 3 115 317 139 381 7 16 13 27 15 25 2 -2 36 -90 75 -196z"/>
<path d="M9070 2441 l0 -571 120 0 120 0 0 235 0 235 70 0 c125 0 141 -15 345
-322 l98 -148 139 0 c76 0 138 2 138 5 0 11 -204 328 -241 375 -21 26 -58 63
-83 81 -25 18 -46 36 -46 40 0 4 17 10 37 14 55 10 113 42 161 88 114 111 111
329 -7 447 -81 81 -94 83 -498 88 l-353 3 0 -570z m638 354 c70 -42 83 -158
24 -217 -39 -39 -82 -47 -274 -47 l-148 -1 0 146 0 147 183 -5 c156 -4 188 -7
215 -23z"/>
<path d="M10511 2488 c-112 -288 -212 -544 -222 -570 l-19 -48 124 0 124 0 47
130 48 130 226 0 226 0 50 -130 50 -130 127 0 128 0 -13 33 c-7 17 -110 274
-228 569 l-214 538 -126 0 -125 0 -203 -522z m404 42 c37 -102 70 -191 72
-197 4 -10 -29 -13 -146 -13 -88 0 -151 4 -151 9 0 6 27 85 61 178 34 92 66
181 71 196 6 16 14 25 18 20 4 -4 37 -91 75 -193z"/>
<path d="M11700 2440 l0 -570 110 0 110 0 2 364 3 363 225 -363 224 -364 118
0 118 0 0 570 0 570 -110 0 -110 0 -2 -371 -3 -371 -226 369 -225 368 -117 3
-117 3 0 -571z"/>
<path d="M13337 3003 c-7 -11 -429 -1094 -435 -1116 -4 -16 5 -17 119 -15
l124 3 45 125 45 125 227 3 226 2 50 -127 49 -128 127 -3 c69 -1 126 0 126 3
0 3 -102 259 -226 570 l-226 565 -123 0 c-68 0 -126 -3 -128 -7z m201 -471
c39 -108 72 -200 72 -204 0 -5 -68 -8 -151 -8 -117 0 -150 3 -147 13 3 6 36
99 74 204 38 106 71 193 74 193 3 0 38 -89 78 -198z"/>
</g>
</svg>
